<?xml version="1.0" standalone="no"?>
<!DOCTYPE svg PUBLIC "-//W3C//DTD SVG 20010904//EN"
 "http://www.w3.org/TR/2001/REC-SVG-20010904/DTD/svg10.dtd">
<svg version="1.0" xmlns="http://www.w3.org/2000/svg"
 width="500.000000pt" height="500.000000pt" viewBox="0 0 500.000000 500.000000"
 preserveAspectRatio="xMidYMid meet">
<metadata>
Created by potrace 1.14, written by Peter Selinger 2001-2017
</metadata>
<g transform="translate(0.000000,500.000000) scale(0.100000,-0.100000)"
fill="#000000" stroke="none">
<path d="M2409 4896 c-2 -2 -42 -7 -88 -10 -47 -4 -87 -9 -90 -11 -3 -1 -24
-6 -46 -9 -149 -24 -358 -94 -509 -170 -92 -47 -285 -168 -318 -198 -7 -7 -29
-25 -48 -39 -19 -15 -65 -55 -101 -90 -227 -219 -405 -507 -502 -814 -40 -127
-52 -189 -77 -370 -9 -71 -7 -415 3 -431 3 -5 8 -32 11 -61 7 -68 21 -128 53
-238 99 -344 316 -688 573 -907 l43 -37 -38 -178 c-68 -328 -71 -351 -57 -450
22 -152 113 -300 231 -375 25 -15 40 -28 34 -28 -40 0 -12 -96 47 -163 l32
-37 -283 -1 c-156 0 -309 -5 -339 -11 -30 -5 -94 -11 -142 -13 -106 -3 -135
-19 -106 -58 12 -15 47 -25 153 -43 150 -25 181 -29 295 -39 36 -4 79 -8 95
-10 17 -2 73 -7 125 -10 52 -4 120 -8 150 -10 383 -26 1893 -27 2050 0 14 2
72 6 130 9 58 4 116 8 130 10 14 3 61 7 105 11 93 7 109 9 274 36 142 22 178
36 173 64 -6 34 -20 40 -105 38 -50 -1 -87 3 -96 10 -10 8 -105 13 -318 15
-166 2 -303 6 -303 8 0 3 12 17 26 32 31 33 61 88 65 122 3 18 -2 27 -20 36
l-24 12 29 15 c39 20 134 121 167 178 42 71 68 157 73 244 5 67 0 108 -31 255
-20 96 -43 214 -52 262 l-16 86 38 33 c247 217 450 534 545 851 22 75 43 150
45 165 2 15 9 53 15 83 20 100 25 173 24 345 -1 198 -20 334 -70 510 -43 150
-64 203 -131 336 -165 327 -407 585 -738 786 -182 111 -471 211 -700 243 -76
11 -378 23 -386 16z"/>
</g>
</svg>
